# xmcd
#
# Track frame offsets:
#	150
#	23086
#	37672
#	57452
#	79819
#	96396
#	114928
#	127195
#	155607
#	176366
#	194636
#	214967
#	279071
#	309912
#	329660
#
# Disc length: 4401 seconds
# Revision: 0
# Processed by: cddbd v1.5.2PL0 Copyright (c) Steve Scherf et al.
# Submitted via: dBpowerAMP V12.0
#
DISCID=cf112f0f
DTITLE=Linn County - The San Francisco Years
DYEAR=1900
DGENRE=Blues
TTITLE0=Tell the Truth
TTITLE1=T. V. Tree
TTITLE2=Next Time You See Me
TTITLE3=Black Nights
TTITLE4=Girl Can't Help It
TTITLE5=Elevator Woman
TTITLE6=Too Far Gone
TTITLE7=Fever Shot
TTITLE8=Ground Hog Blues
TTITLE9=Lower Lemons
TTITLE10=Cave Song
TTITLE11=Protect and Serve/Bad Things
TTITLE12=Fast Days
TTITLE13=Till the Break of Dawn
TTITLE14=DATA
EXTD=
EXTT0=
EXTT1=
EXTT2=
EXTT3=
EXTT4=
EXTT5=
EXTT6=
EXTT7=
EXTT8=
EXTT9=
EXTT10=
EXTT11=
EXTT12=
EXTT13=
EXTT14=
PLAYORDER=
